<?xml version="1.0" encoding="UTF-8" standalone="no"?>
<!DOCTYPE svg PUBLIC "-//W3C//DTD SVG 1.1//EN"
 "http://www.w3.org/Graphics/SVG/1.1/DTD/svg11.dtd">
<!-- Generated by graphviz version 14.1.3 (20260303.0454)
 -->
<!-- Title: G Pages: 1 -->
<svg width="755pt" height="186pt"
 viewBox="0.00 0.00 755.00 186.00" xmlns="http://www.w3.org/2000/svg" xmlns:xlink="http://www.w3.org/1999/xlink">
<g id="graph0" class="graph" transform="scale(1 1) rotate(0) translate(17.28 168.96)">
<title>G</title>
<polygon fill="white" stroke="none" points="-17.28,17.28 -17.28,-168.96 738.06,-168.96 738.06,17.28 -17.28,17.28"/>
<text xml:space="preserve" text-anchor="middle" x="360.39" y="-131.48" font-family="Arial" font-size="18.00">DMuon：路由一次、更新一次、异步发布</text>
<!-- grads -->
<g id="node1" class="node">
<title>grads</title>
<path fill="#eaf2ff" stroke="#3973b7" d="M78.93,-122.08C78.93,-122.08 17,-122.08 17,-122.08 11,-122.08 5,-116.08 5,-110.08 5,-110.08 5,-88 5,-88 5,-82 11,-76 17,-76 17,-76 78.93,-76 78.93,-76 84.93,-76 90.93,-82 90.93,-88 90.93,-88 90.93,-110.08 90.93,-110.08 90.93,-116.08 84.93,-122.08 78.93,-122.08"/>
<text xml:space="preserve" text-anchor="middle" x="47.97" y="-102.64" font-family="Arial" font-size="12.00" fill="#0f172a">多个进程上的</text>
<text xml:space="preserve" text-anchor="middle" x="47.97" y="-88.24" font-family="Arial" font-size="12.00" fill="#0f172a">梯度就绪</text>
</g>
<!-- route -->
<g id="node2" class="node">
<title>route</title>
<path fill="#eaf2ff" stroke="#3973b7" d="M222.87,-122.08C222.87,-122.08 150.93,-122.08 150.93,-122.08 144.93,-122.08 138.93,-116.08 138.93,-110.08 138.93,-110.08 138.93,-88 138.93,-88 138.93,-82 144.93,-76 150.93,-76 150.93,-76 222.87,-76 222.87,-76 228.87,-76 234.87,-82 234.87,-88 234.87,-88 234.87,-110.08 234.87,-110.08 234.87,-116.08 228.87,-122.08 222.87,-122.08"/>
<text xml:space="preserve" text-anchor="middle" x="186.9" y="-102.64" font-family="Arial" font-size="12.00" fill="#0f172a">为逻辑矩阵 W</text>
<text xml:space="preserve" text-anchor="middle" x="186.9" y="-88.24" font-family="Arial" font-size="12.00" fill="#0f172a">平均归约并路由</text>
</g>
<!-- grads&#45;&gt;route -->
<g id="edge1" class="edge">
<title>grads&#45;&gt;route</title>
<path fill="none" stroke="#475569" stroke-width="1.35" d="M91.16,-99.04C91.16,-99.04 129.65,-99.04 129.65,-99.04"/>
<polygon fill="#475569" stroke="#475569" stroke-width="1.35" points="129.65,-101.56 136.85,-99.04 129.65,-96.52 129.65,-101.56"/>
</g>
<!-- owner -->
<g id="node3" class="node">
<title>owner</title>
<path fill="#fff3e8" stroke="#c66a16" d="M379.35,-122.08C379.35,-122.08 301.41,-122.08 301.41,-122.08 295.41,-122.08 289.41,-116.08 289.41,-110.08 289.41,-110.08 289.41,-88 289.41,-88 289.41,-82 295.41,-76 301.41,-76 301.41,-76 379.35,-76 379.35,-76 385.35,-76 391.35,-82 391.35,-88 391.35,-88 391.35,-110.08 391.35,-110.08 391.35,-116.08 385.35,-122.08 379.35,-122.08"/>
<text xml:space="preserve" text-anchor="middle" x="340.38" y="-102.64" font-family="Arial" font-size="12.00" fill="#0f172a">唯一权威 owner</text>
<text xml:space="preserve" text-anchor="middle" x="340.38" y="-88.24" font-family="Arial" font-size="12.00" fill="#0f172a">参数与动量状态</text>
</g>
<!-- route&#45;&gt;owner -->
<g id="edge2" class="edge">
<title>route&#45;&gt;owner</title>
<path fill="none" stroke="#475569" stroke-width="1.35" d="M235.04,-99.04C235.04,-99.04 279.71,-99.04 279.71,-99.04"/>
<polygon fill="#475569" stroke="#475569" stroke-width="1.35" points="279.71,-101.56 286.91,-99.04 279.71,-96.52 279.71,-101.56"/>
</g>
<!-- once -->
<g id="node4" class="node">
<title>once</title>
<path fill="#fff3e8" stroke="#c66a16" d="M569.84,-122.08C569.84,-122.08 457.89,-122.08 457.89,-122.08 451.89,-122.08 445.89,-116.08 445.89,-110.08 445.89,-110.08 445.89,-88 445.89,-88 445.89,-82 451.89,-76 457.89,-76 457.89,-76 569.84,-76 569.84,-76 575.84,-76 581.84,-82 581.84,-88 581.84,-88 581.84,-110.08 581.84,-110.08 581.84,-116.08 575.84,-122.08 569.84,-122.08"/>
<text xml:space="preserve" text-anchor="middle" x="513.87" y="-102.64" font-family="Arial" font-size="12.00" fill="#0f172a">对完整矩阵 W</text>
<text xml:space="preserve" text-anchor="middle" x="513.87" y="-88.24" font-family="Arial" font-size="12.00" fill="#0f172a">只运行一次 Muon / NS</text>
</g>
<!-- owner&#45;&gt;once -->
<g id="edge3" class="edge">
<title>owner&#45;&gt;once</title>
<path fill="none" stroke="#475569" stroke-width="1.35" d="M391.49,-99.04C391.49,-99.04 436.19,-99.04 436.19,-99.04"/>
<polygon fill="#475569" stroke="#475569" stroke-width="1.35" points="436.19,-101.56 443.39,-99.04 436.19,-96.52 436.19,-101.56"/>
</g>
<!-- publish -->
<g id="node5" class="node">
<title>publish</title>
<path fill="#eaf8ee" stroke="#2d8a4e" d="M708.78,-122.08C708.78,-122.08 636.84,-122.08 636.84,-122.08 630.84,-122.08 624.84,-116.08 624.84,-110.08 624.84,-110.08 624.84,-88 624.84,-88 624.84,-82 630.84,-76 636.84,-76 636.84,-76 708.78,-76 708.78,-76 714.78,-76 720.78,-82 720.78,-88 720.78,-88 720.78,-110.08 720.78,-110.08 720.78,-116.08 714.78,-122.08 708.78,-122.08"/>
<text xml:space="preserve" text-anchor="middle" x="672.81" y="-102.64" font-family="Arial" font-size="12.00" fill="#0f172a">异步发布到</text>
<text xml:space="preserve" text-anchor="middle" x="672.81" y="-88.24" font-family="Arial" font-size="12.00" fill="#0f172a">打包参数缓冲区</text>
</g>
<!-- once&#45;&gt;publish -->
<g id="edge4" class="edge">
<title>once&#45;&gt;publish</title>
<path fill="none" stroke="#475569" stroke-width="1.35" d="M582.2,-99.04C582.2,-99.04 615.44,-99.04 615.44,-99.04"/>
<polygon fill="#475569" stroke="#475569" stroke-width="1.35" points="615.44,-101.56 622.64,-99.04 615.44,-96.52 615.44,-101.56"/>
</g>
<!-- consume -->
<g id="node6" class="node">
<title>consume</title>
<path fill="#eaf8ee" stroke="#2d8a4e" d="M83.93,-46.08C83.93,-46.08 12,-46.08 12,-46.08 6,-46.08 0,-40.08 0,-34.08 0,-34.08 0,-12 0,-12 0,-6 6,0 12,0 12,0 83.93,0 83.93,0 89.93,0 95.93,-6 95.93,-12 95.93,-12 95.93,-34.08 95.93,-34.08 95.93,-40.08 89.93,-46.08 83.93,-46.08"/>
<text xml:space="preserve" text-anchor="middle" x="47.97" y="-26.64" font-family="Arial" font-size="12.00" fill="#0f172a">下一层使用前</text>
<text xml:space="preserve" text-anchor="middle" x="47.97" y="-12.24" font-family="Arial" font-size="12.00" fill="#0f172a">才等待参数就绪</text>
</g>
<!-- publish&#45;&gt;consume -->
<g id="edge5" class="edge">
<title>publish&#45;&gt;consume</title>
<path fill="none" stroke="#94a3b8" stroke-width="1.35" stroke-dasharray="5,2" d="M672.78,-75.82C672.78,-53.47 672.78,-23.04 672.78,-23.04 672.78,-23.04 105.46,-23.04 105.46,-23.04"/>
<polygon fill="#94a3b8" stroke="#94a3b8" stroke-width="1.35" points="105.46,-20.52 98.26,-23.04 105.46,-25.56 105.46,-20.52"/>
<text xml:space="preserve" text-anchor="middle" x="340.38" y="-33.04" font-family="Arial" font-size="10.00" fill="#64748b">与下一步前向 / 其他参数发布重叠</text>
</g>
</g>
</svg>
