<?xml version="1.0" encoding="UTF-8" standalone="no"?>
<!DOCTYPE svg PUBLIC "-//W3C//DTD SVG 1.1//EN"
 "http://www.w3.org/Graphics/SVG/1.1/DTD/svg11.dtd">
<!-- Generated by graphviz version 14.1.3 (20260303.0454)
 -->
<!-- Title: G Pages: 1 -->
<svg width="729pt" height="204pt"
 viewBox="0.00 0.00 729.00 204.00" xmlns="http://www.w3.org/2000/svg" xmlns:xlink="http://www.w3.org/1999/xlink">
<g id="graph0" class="graph" transform="scale(1 1) rotate(0) translate(17.28 186.68)">
<title>G</title>
<polygon fill="white" stroke="none" points="-17.28,17.28 -17.28,-186.68 711.5,-186.68 711.5,17.28 -17.28,17.28"/>
<text xml:space="preserve" text-anchor="middle" x="347.11" y="-149.2" font-family="Arial" font-size="18.00">三个不同对象的奇异值谱回答三个不同问题</text>
<!-- w -->
<g id="node1" class="node">
<title>w</title>
<path fill="#eaf2ff" stroke="#3973b7" d="M106.82,-94.8C106.82,-94.8 12,-94.8 12,-94.8 6,-94.8 0,-88.8 0,-82.8 0,-82.8 0,-43.44 0,-43.44 0,-37.44 6,-31.44 12,-31.44 12,-31.44 106.82,-31.44 106.82,-31.44 112.82,-31.44 118.82,-37.44 118.82,-43.44 118.82,-43.44 118.82,-82.8 118.82,-82.8 118.82,-88.8 112.82,-94.8 106.82,-94.8"/>
<text xml:space="preserve" text-anchor="middle" x="59.41" y="-73.92" font-family="Arial" font-size="12.00" fill="#0f172a">权重奇异值谱</text>
<text xml:space="preserve" text-anchor="middle" x="59.41" y="-59.52" font-family="Arial" font-size="12.00" fill="#0f172a">s(W)</text>
<text xml:space="preserve" text-anchor="middle" x="59.41" y="-45.12" font-family="Arial" font-size="12.00" fill="#0f172a">线性映射的增益分布</text>
</g>
<!-- block -->
<g id="node2" class="node">
<title>block</title>
<path fill="#fff3e8" stroke="#c66a16" d="M404.33,-94.8C404.33,-94.8 289.51,-94.8 289.51,-94.8 283.51,-94.8 277.51,-88.8 277.51,-82.8 277.51,-82.8 277.51,-43.44 277.51,-43.44 277.51,-37.44 283.51,-31.44 289.51,-31.44 289.51,-31.44 404.33,-31.44 404.33,-31.44 410.33,-31.44 416.33,-37.44 416.33,-43.44 416.33,-43.44 416.33,-82.8 416.33,-82.8 416.33,-88.8 410.33,-94.8 404.33,-94.8"/>
<text xml:space="preserve" text-anchor="middle" x="346.92" y="-73.92" font-family="Arial" font-size="12.00" fill="#0f172a">模块雅可比矩阵奇异值谱</text>
<text xml:space="preserve" text-anchor="middle" x="346.92" y="-59.52" font-family="Arial" font-size="12.00" fill="#0f172a">s(J_block)</text>
<text xml:space="preserve" text-anchor="middle" x="346.92" y="-45.12" font-family="Arial" font-size="12.00" fill="#0f172a">局部扰动与梯度传播</text>
</g>
<!-- w&#45;&gt;block -->
<g id="edge1" class="edge">
<title>w&#45;&gt;block</title>
<path fill="none" stroke="#475569" stroke-width="1.35" d="M118.98,-63.12C118.98,-63.12 267.79,-63.12 267.79,-63.12"/>
<polygon fill="#475569" stroke="#475569" stroke-width="1.35" points="267.79,-65.64 274.99,-63.12 267.79,-60.6 267.79,-65.64"/>
<text xml:space="preserve" text-anchor="middle" x="198.16" y="-66.12" font-family="Arial" font-size="10.00" fill="#334155">经激活 / 归一化 / 残差共同作用</text>
</g>
<!-- net -->
<g id="node3" class="node">
<title>net</title>
<path fill="#eaf8ee" stroke="#2d8a4e" d="M667.02,-139.8C667.02,-139.8 552.2,-139.8 552.2,-139.8 546.2,-139.8 540.2,-133.8 540.2,-127.8 540.2,-127.8 540.2,-88.44 540.2,-88.44 540.2,-82.44 546.2,-76.44 552.2,-76.44 552.2,-76.44 667.02,-76.44 667.02,-76.44 673.02,-76.44 679.02,-82.44 679.02,-88.44 679.02,-88.44 679.02,-127.8 679.02,-127.8 679.02,-133.8 673.02,-139.8 667.02,-139.8"/>
<text xml:space="preserve" text-anchor="middle" x="609.61" y="-118.92" font-family="Arial" font-size="12.00" fill="#0f172a">整网雅可比矩阵奇异值谱</text>
<text xml:space="preserve" text-anchor="middle" x="609.61" y="-104.52" font-family="Arial" font-size="12.00" fill="#0f172a">s(J_network)</text>
<text xml:space="preserve" text-anchor="middle" x="609.61" y="-90.12" font-family="Arial" font-size="12.00" fill="#0f172a">端到端局部敏感度</text>
</g>
<!-- block&#45;&gt;net -->
<g id="edge2" class="edge">
<title>block&#45;&gt;net</title>
<path fill="none" stroke="#475569" stroke-width="1.35" d="M416.63,-85.62C416.63,-85.62 530.79,-85.62 530.79,-85.62"/>
<polygon fill="#475569" stroke="#475569" stroke-width="1.35" points="530.79,-88.14 537.99,-85.62 530.79,-83.1 530.79,-88.14"/>
<text xml:space="preserve" text-anchor="middle" x="470.67" y="-111.12" font-family="Arial" font-size="10.00" fill="#334155">再按深度有序复合</text>
</g>
<!-- warning -->
<g id="node4" class="node">
<title>warning</title>
<path fill="#ffffff" stroke="#b93838" d="M682.22,-36.24C682.22,-36.24 537.01,-36.24 537.01,-36.24 531.01,-36.24 525.01,-30.24 525.01,-24.24 525.01,-24.24 525.01,-12 525.01,-12 525.01,-6 531.01,0 537.01,0 537.01,0 682.22,0 682.22,0 688.22,0 694.22,-6 694.22,-12 694.22,-12 694.22,-24.24 694.22,-24.24 694.22,-30.24 688.22,-36.24 682.22,-36.24"/>
<text xml:space="preserve" text-anchor="middle" x="609.61" y="-14.82" font-family="Arial" font-size="11.00" fill="#7f1d1d">知道其中一个，不能推出另外两个</text>
</g>
<!-- block&#45;&gt;warning -->
<g id="edge3" class="edge">
<title>block&#45;&gt;warning</title>
<path fill="none" stroke="#b93838" stroke-width="1.35" stroke-dasharray="5,2" d="M416.71,-56.34C469.23,-56.34 532.22,-56.34 532.22,-56.34 532.22,-56.34 532.22,-46.18 532.22,-36.33"/>
</g>
</g>
</svg>
